<svg xmlns:dc="http://purl.org/dc/elements/1.1/" xmlns:cc="http://creativecommons.org/ns#" xmlns:rdf="http://www.w3.org/1999/02/22-rdf-syntax-ns#" xmlns:svg="http://www.w3.org/2000/svg" xmlns="http://www.w3.org/2000/svg" xmlns:sodipodi="http://sodipodi.sourceforge.net/DTD/sodipodi-0.dtd" xmlns:inkscape="http://www.inkscape.org/namespaces/inkscape" version="1.1" x="0px" y="0px" viewBox="0 0 100 125"><g transform="translate(0,-952.36218)"><path style="text-indent:0;text-transform:none;direction:ltr;block-progression:tb;baseline-shift:baseline;color:#000000;enable-background:accumulate;" d="m 80.09345,977.65948 c -5.69637,0 -10.46456,3.93388 -12.21875,9.34375 a 0.80008001,0.80008001 0 0 0 -0.0312,0.0625 c -0.007,0.0219 -0.0245,0.0405 -0.0312,0.0625 a 0.80008001,0.80008001 0 0 0 -0.0625,0.125 c -0.13015,0.43465 -0.25261,0.89282 -0.34375,1.34375 -0.006,0.0303 0.006,0.0634 0,0.0937 -0.0423,0.21603 -0.0922,0.43674 -0.125,0.65625 -0.0264,0.17933 -0.0426,0.34973 -0.0625,0.53125 a 0.80008001,0.80008001 0 0 0 0,0.0937 c -0.0537,0.50823 -0.0937,1.00672 -0.0937,1.53125 l 0,1.21875 c -2.20108,-4.26645 -6.43202,-7.1875 -11.34375,-7.1875 -0.23746,0 -0.50784,0.0116 -0.78125,0.0312 a 0.80008001,0.80008001 0 0 0 -0.71875,0.875 c 0.75643,6.8633 6.16976,12.21875 12.84375,12.21875 l 0,1.93747 a 0.80008007,0.80008007 0 0 0 0,0.094 l 0,0.062 a 0.8125,0.8125 0 0 0 0,0.094 l 0,16.8125 c -0.88937,-0.3391 -1.4984,-1.2571 -1.46875,-2.3125 a 0.77206601,0.8291105 0 0 0 -1.09375,-0.7812 0.80008001,0.80008001 0 0 0 -0.0312,0 0.80008001,0.80008001 0 0 0 -0.15625,-0.031 l -15.46875,0 a 0.78583428,0.84389603 0 0 0 -1.09375,0.7812 c 0.0134,1.017 -0.56669,1.8967 -1.40625,2.25 l 0,-13.2187 a 0.80008001,0.80008001 0 0 0 0,-0.031 0.80008001,0.80008001 0 0 0 0,-0.1563 l 0,-1.125 c 4.12416,-0.1989 7.43692,-3.59246 7.90625,-7.87497 a 0.80008001,0.80008001 0 0 0 -0.75,-0.90625 c -0.18477,-0.0134 -0.35281,0 -0.5,0 -4.3025,0 -7.79898,3.45842 -8.28125,7.87502 a 0.80008001,0.80008001 0 0 0 0.0625,0.4062 0.80008001,0.80008001 0 0 0 -0.0312,0.2188 l 0,1.4375 a 0.80008001,0.80008001 0 0 0 0,0.125 0.80008001,0.80008001 0 0 0 0,0.25 l 0,1.625 c -1.49095,-2.1544 -4.01234,-3.4296 -6.6875,-3.0313 -0.12103,0.018 -0.2482,0.027 -0.40625,0.062 a 0.80008001,0.80008001 0 0 0 -0.625,0.9688 c 0.87319,3.6042 4.14851,6.0888 7.71875,5.625 l 0,7.7812 c -0.76791,-0.2737 -1.32291,-0.9542 -1.46875,-1.8125 a 0.80008001,0.80008001 0 0 0 -0.46875,-1.2187 0.77206601,0.8291105 0 0 0 -0.4375,-0.094 0.77206601,0.8291105 0 0 0 -0.21875,0.062 l -16.3125,0 a 0.77206601,0.8291105 0 0 0 -0.53125,0 0.8006955,0.8006955 0 0 0 -0.53125,1.3437 c -0.15176,0.8716 -0.76021,1.5601 -1.5625,1.8125 a 0.80008001,0.80008001 0 0 0 0,-0.062 l 0,-8.4687 c 0.009,10e-4 0.0227,-10e-4 0.0312,0 3.6186,0.5387 6.92912,-1.9788 7.8125,-5.625 a 0.80008001,0.80008001 0 0 0 -0.59375,-0.9688 c -0.15805,-0.036 -0.31646,-0.044 -0.4375,-0.062 -2.77686,-0.4134 -5.35629,0.975 -6.8125,3.2813 l 0,-0.062 a 0.80008001,0.80008001 0 0 0 0,-0.1563 l 0,-6.84372 c 0,-0.86191 0.10886,-1.68275 0.3125,-2.46875 5.04582,-0.0842 9.14731,-4.16074 9.71875,-9.375 a 0.80008001,0.80008001 0 0 0 -0.75,-0.90625 c -0.21532,-0.0156 -0.41549,0 -0.59375,0 a 0.80008001,0.80008001 0 0 0 -0.0937,0 0.80008001,0.80008001 0 0 0 -0.0625,0 0.80008001,0.80008001 0 0 0 -0.0937,0.0312 0.80008001,0.80008001 0 0 0 -0.0625,0.0312 c -4.96778,0.1727 -8.99932,4.18607 -9.5625,9.34375 a 0.80008001,0.80008001 0 0 0 0,0.28125 c -0.27144,0.9735 -0.40625,1.9928 -0.40625,3.0625 l 0,0.15625 c -1.75978,-2.90475 -4.80744,-4.84375 -8.3125,-4.84375 -0.17826,0 -0.37842,-0.0156 -0.59375,0 a 0.80008001,0.80008001 0 0 0 -0.75,0.90625 c 0.56906,5.19237 4.63964,9.25777 9.65625,9.37497 l 0,1.2813 a 0.80008001,0.80008001 0 0 0 0,0.062 l 0,0.031 a 0.80008001,0.80008001 0 0 0 0,0.031 0.80008001,0.80008001 0 0 0 0,0.2187 l 0,11.625 c -0.63214,-0.3054 -1.12819,-0.8877 -1.28125,-1.625 a 0.80008001,0.80008001 0 0 0 -0.46875,-1.4062 0.77206601,0.8291105 0 0 0 -0.46875,-0.094 0.77206601,0.8291105 0 0 0 -0.21875,0.094 l -6.125,0 c -1.36852,0 -2.5713,0.792 -3.375,1.9375 -0.8037,1.1455 -1.25,2.6474 -1.25,4.3125 0,1.665 0.4463,3.1982 1.25,4.3437 0.8037,1.1455 2.00648,1.9375 3.375,1.9375 l 73.71875,0 c 1.36853,0 2.5713,-0.792 3.375,-1.9375 0.8037,-1.1455 1.28125,-2.6787 1.28125,-4.3437 0,-1.6651 -0.47753,-3.1682 -1.28125,-4.3125 -0.80372,-1.1444 -2.00829,-1.9324 -3.375,-1.9375 l -15.6875,-0.062 a 0.77206601,0.8291105 0 0 0 -0.0937,-0.031 0.77206601,0.8291105 0 0 0 -0.28125,0.031 0.77206601,0.8291105 0 0 0 -0.0937,0.031 0.8006955,0.8006955 0 0 0 -0.125,0.031 0.8006955,0.8006955 0 0 0 -0.0312,0.031 0.8006955,0.8006955 0 0 0 -0.0625,0.031 0.8006955,0.8006955 0 0 0 -0.0625,0.031 0.8006955,0.8006955 0 0 0 -0.25,1.0312 0.8006955,0.8006955 0 0 0 0,0.031 c -0.0993,0.8949 -0.64229,1.6265 -1.40625,1.9375 l 0,-12.625 c 0.10751,0.017 0.22006,0.049 0.3125,0.062 4.67765,0.6926 8.97623,-2.5037 10.125,-7.21872 a 0.80008001,0.80008001 0 0 0 -0.59375,-0.96875 c -0.13094,-0.0291 -0.25813,-0.0444 -0.375,-0.0625 a 0.80008001,0.80008001 0 0 0 -0.0937,-0.0312 c -0.0274,-0.004 -0.0677,0.004 -0.0937,0 -3.89407,-0.57652 -7.51146,1.55404 -9.28125,4.99997 l 0,-0.9062 a 0.8125,0.8125 0 0 0 0,-0.125 0.80008007,0.80008007 0 0 0 0,-0.1563 l 0,-9.09372 c 0,-0.2467 0.0192,-0.47695 0.0312,-0.71875 6.65975,-0.0167 12.08848,-5.36616 12.84375,-12.21875 a 0.80008001,0.80008001 0 0 0 -0.75,-0.875 c -0.21881,-0.0157 -0.42789,-0.031 -0.625,-0.0312 -0.0492,-1.1e-4 -0.10883,0 -0.15625,0 z M 12.9997,1017.097 c 0.48414,0 0.91077,0.2233 1.1875,0.4687 0.27672,0.2455 0.43834,0.5491 0.59375,0.875 0.31086,0.6519 0.46875,1.4527 0.46875,2.3438 0,0.891 -0.15789,1.6919 -0.46875,2.3437 -0.15541,0.3259 -0.31703,0.5983 -0.59375,0.8438 -0.27673,0.2454 -0.70336,0.5 -1.1875,0.5 -0.48413,0 -0.91077,-0.2546 -1.1875,-0.5 -0.27672,-0.2455 -0.43833,-0.5179 -0.59375,-0.8438 -0.31085,-0.6518 -0.5,-1.4527 -0.5,-2.3437 0,-0.8911 0.18915,-1.6919 0.5,-2.3438 0.15542,-0.3259 0.31703,-0.6295 0.59375,-0.875 0.27673,-0.2454 0.70337,-0.4687 1.1875,-0.4687 z m 0,1.625 c -0.0597,0.071 -0.1167,0.1327 -0.1875,0.2812 -0.19586,0.4107 -0.3125,1.0509 -0.3125,1.7813 0,0.7303 0.11664,1.4018 0.3125,1.8125 0.0708,0.1485 0.1278,0.2099 0.1875,0.2812 0.058,-0.072 0.15255,-0.1425 0.21875,-0.2812 0.19585,-0.4107 0.3125,-1.0822 0.3125,-1.8125 0,-0.7304 -0.11665,-1.3706 -0.3125,-1.7813 -0.0662,-0.1387 -0.16075,-0.2094 -0.21875,-0.2812 z" fill="#000000" fill-opacity="1" stroke="none" marker="none" visibility="visible" display="inline" overflow="visible"/></g><text x="0" y="115" fill="#000000" font-size="5px" font-weight="bold" font-family="'Helvetica Neue', Helvetica, Arial-Unicode, Arial, Sans-serif">Created by Artdabana@Design</text><text x="0" y="120" fill="#000000" font-size="5px" font-weight="bold" font-family="'Helvetica Neue', Helvetica, Arial-Unicode, Arial, Sans-serif">from the Noun Project</text></svg>